# ProBuilder 5.2.4
# https://unity3d.com/unity/features/worldbuilding/probuilder
# 14/6/2025 9:07:10 p. m.

mtllib ./River.mtl
o River

g River
v 0 -2.612412E-05 -0.5
v 0.06250001 0.005555555 -0.5
v 0.06250001 0.005555555 -0.4375
v 0 -2.612412E-05 -0.4375
v 0.125 0.005555555 -0.5
v 0.125 0.005555555 -0.4375
v 0.125 0.005555555 -0.375
v 0.06250001 0.005555555 -0.375
v 0 -2.612412E-05 -0.375
v 0.1875 0.005555555 -0.5
v 0.1875 0.005555555 -0.4375
v 0.25 0.005555555 -0.5
v 0.25 0.005555555 -0.4375
v 0.25 -2.612412E-05 -0.375
v 0.1875 0.005555555 -0.375
v 0.1875 0.01388889 -0.3125
v 0.125 0.01388889 -0.3125
v 0.25 0.01388889 -0.3125
v 0.25 0.01388889 -0.25
v 0.1875 0.01388889 -0.25
v 0.125 0.01388889 -0.25
v 0.06250001 0.01388889 -0.3125
v 1.862645E-08 0.01388889 -0.3125
v 0.06250001 0.01388889 -0.25
v 1.862645E-08 0.01388889 -0.25
v 0.3125 -2.612412E-05 -0.5
v 0.3125 -2.612412E-05 -0.4375
v 0.375 -2.612412E-05 -0.5
v 0.375 -2.612412E-05 -0.4375
v 0.375 -2.612412E-05 -0.375
v 0.3125 -2.612412E-05 -0.375
v 0.4375 -2.612412E-05 -0.5
v 0.4375 -2.612412E-05 -0.4375
v 0.5 -2.612412E-05 -0.5
v 0.5 -2.612412E-05 -0.4375
v 0.5 -2.612412E-05 -0.375
v 0.4375 -2.612412E-05 -0.375
v 0.4375 0.004166666 -0.3125
v 0.375 -2.612412E-05 -0.3125
v 0.5 -2.612412E-05 -0.3125
v 0.5 0.004166666 -0.25
v 0.4375 0.004166666 -0.25
v 0.375 0.004166666 -0.25
v 0.3125 -2.612412E-05 -0.3125
v 0.3125 -2.612412E-05 -0.25
v 0.3125 0.004166666 -0.1875
v 0.25 0.01388889 -0.1875
v 0.375 0.004166666 -0.1875
v 0.375 0.004166666 -0.125
v 0.3125 -2.612412E-05 -0.125
v 0.25 0.01388889 -0.125
v 0.4375 0.004166666 -0.1875
v 0.5 -2.612412E-05 -0.1875
v 0.5 -2.612412E-05 -0.125
v 0.4375 -2.612412E-05 -0.125
v 0.4375 -2.612412E-05 -0.0625
v 0.375 -2.612412E-05 -0.0625
v 0.5 -2.612412E-05 -0.0625
v 0.5 -2.612412E-05 0
v 0.4375 -2.612412E-05 0
v 0.375 -2.612412E-05 0
v 0.3125 -2.612412E-05 -0.0625
v 0.25 -2.612412E-05 -0.0625
v 0.3125 -2.612412E-05 0
v 0.25 -2.612412E-05 0
v 0.06250001 0.01388889 -0.1875
v 1.862645E-08 0.01388889 -0.1875
v 0.125 0.01388889 -0.1875
v 0.125 0.01388889 -0.125
v 0.06250001 0.01388889 -0.125
v 1.862645E-08 0.01388889 -0.125
v 0.1875 0.01388889 -0.1875
v 0.1875 0.01388889 -0.125
v 0.1875 0.01388889 -0.06249999
v 0.125 0.01388889 -0.06249999
v 0.1875 0.01388889 7.450581E-09
v 0.125 0.01388889 7.450581E-09
v 0.06250001 0.01388889 -0.06249999
v 1.862645E-08 0.01388889 -0.06249999
v 0.06250001 0.02222222 7.450581E-09
v 1.862645E-08 0.02222222 7.450581E-09
v 0.06250001 0.02222222 0.0625
v 1.862645E-08 0.02222222 0.0625
v 0.125 0.02222222 0.0625
v 0.125 0.01388889 0.125
v 0.06250001 0.02222222 0.125
v 1.862645E-08 0.02222222 0.125
v 0.1875 0.01388889 0.0625
v 0.25 -2.612412E-05 0.0625
v 0.25 -2.612412E-05 0.125
v 0.1875 0.01388889 0.125
v 0.1875 0.01388889 0.1875
v 0.125 0.01388889 0.1875
v 0.25 -2.612412E-05 0.1875
v 0.25 -2.612412E-05 0.25
v 0.1875 0.01388889 0.25
v 0.125 0.01388889 0.25
v 0.06250001 0.01388889 0.1875
v 1.862645E-08 0.01388889 0.1875
v 0.06250001 0.01388889 0.25
v 1.862645E-08 0.01388889 0.25
v 0.3125 -2.612412E-05 0.0625
v 0.375 -2.612412E-05 0.0625
v 0.375 -2.612412E-05 0.125
v 0.3125 -2.612412E-05 0.125
v 0.4375 -2.612412E-05 0.0625
v 0.5 -2.612412E-05 0.0625
v 0.5 -2.612412E-05 0.125
v 0.4375 -2.612412E-05 0.125
v 0.4375 -2.612412E-05 0.1875
v 0.375 -2.612412E-05 0.1875
v 0.5 -2.612412E-05 0.1875
v 0.5 -2.612412E-05 0.25
v 0.4375 -2.612412E-05 0.25
v 0.375 -2.612412E-05 0.25
v 0.3125 -2.612412E-05 0.1875
v 0.3125 -2.612412E-05 0.25
v 0.3125 -2.612412E-05 0.3125
v 0.25 -2.612412E-05 0.3125
v 0.375 -2.612412E-05 0.3125
v 0.375 -2.612412E-05 0.375
v 0.3125 -2.612412E-05 0.375
v 0.25 -2.612412E-05 0.375
v 0.4375 -2.612412E-05 0.3125
v 0.5 -2.612412E-05 0.3125
v 0.5 -2.612412E-05 0.375
v 0.4375 -2.612412E-05 0.375
v 0.4375 -2.612412E-05 0.4375
v 0.375 -2.612412E-05 0.4375
v 0.5 -2.612412E-05 0.4375
v 0.5 -2.612412E-05 0.5
v 0.4375 -2.612412E-05 0.5
v 0.375 -2.612412E-05 0.5
v 0.3125 -2.612412E-05 0.4375
v 0.25 -2.612412E-05 0.4375
v 0.3125 -2.612412E-05 0.5
v 0.25 -2.612412E-05 0.5
v 0.06250001 0.01388889 0.3125
v 1.862645E-08 0.01388889 0.3125
v 0.125 0.01388889 0.3125
v 0.125 0.006944444 0.375
v 0.06250001 0.006944444 0.375
v 1.862645E-08 0.006944444 0.375
v 0.1875 -2.612412E-05 0.3125
v 0.1875 -2.612412E-05 0.375
v 0.1875 -2.612412E-05 0.4375
v 0.125 0.006944444 0.4375
v 0.1875 -2.612412E-05 0.5
v 0.125 0.006944444 0.5
v 0.06250001 0.006944444 0.4375
v 1.862645E-08 0.006944444 0.4375
v 0.06250001 0.006944444 0.5
v 1.862645E-08 0.006944444 0.5
v -0.4999999 0.009696098 7.450581E-09
v -0.4374999 0.01111111 7.450581E-09
v -0.4374999 0.009696098 0.0625
v -0.4999999 0.009696098 0.0625
v -0.375 0.01111111 7.450581E-09
v -0.375 0.009696098 0.0625
v -0.375 0.009696098 0.125
v -0.4374999 0.009696098 0.125
v -0.4999999 0.009696098 0.125
v -0.3125 0.01111111 7.450581E-09
v -0.3125 0.009696098 0.0625
v -0.25 0.02083333 7.450581E-09
v -0.25 0.01525165 0.0625
v -0.25 0.01525165 0.125
v -0.3125 0.009696098 0.125
v -0.3125 0.005529433 0.1875
v -0.375 -2.612412E-05 0.1875
v -0.25 0.005529433 0.1875
v -0.25 -2.612412E-05 0.25
v -0.3125 -2.612412E-05 0.25
v -0.375 -2.612412E-05 0.25
v -0.4375 -2.612412E-05 0.1875
v -0.5 -2.612412E-05 0.1875
v -0.4375 -2.612412E-05 0.25
v -0.5 -2.612412E-05 0.25
v -0.1874999 0.01944444 7.450581E-09
v -0.1874999 0.01944444 0.0625
v -0.1249999 0.01944444 7.450581E-09
v -0.1249999 0.01944444 0.0625
v -0.1249999 0.01944444 0.125
v -0.1874999 0.01944444 0.125
v -0.06249994 0.02777778 7.450581E-09
v -0.06249994 0.02777778 0.0625
v -0.06249994 0.01944444 0.125
v -0.06249994 0.01944444 0.1875
v -0.1249999 0.01944444 0.1875
v -0.06249998 0.01388889 0.25
v -0.125 0.01388889 0.25
v -0.1875 0.005529433 0.1875
v -0.1875 -2.612412E-05 0.25
v -0.1875 -2.612412E-05 0.3125
v -0.25 -2.612412E-05 0.3125
v -0.125 0.01388889 0.3125
v -0.125 -2.612412E-05 0.375
v -0.1875 -2.612412E-05 0.375
v -0.25 -2.612412E-05 0.375
v -0.06249998 0.01388889 0.3125
v -0.0625 -2.612412E-05 0.375
v -0.0625 -2.612412E-05 0.4375
v -0.125 -2.612412E-05 0.4375
v -0.0625 -2.612412E-05 0.5
v -0.125 -2.612412E-05 0.5
v -0.1875 -2.612412E-05 0.4375
v -0.25 -2.612412E-05 0.4375
v -0.1875 -2.612412E-05 0.5
v -0.25 -2.612412E-05 0.5
v -0.4375 -2.612412E-05 0.3125
v -0.5 -2.612412E-05 0.3125
v -0.375 -2.612412E-05 0.3125
v -0.375 -2.612412E-05 0.375
v -0.4375 -2.612412E-05 0.375
v -0.5 -2.612412E-05 0.375
v -0.3125 -2.612412E-05 0.3125
v -0.3125 -2.612412E-05 0.375
v -0.3125 -2.612412E-05 0.4375
v -0.375 -2.612412E-05 0.4375
v -0.3125 -2.612412E-05 0.5
v -0.375 -2.612412E-05 0.5
v -0.4375 -2.612412E-05 0.4375
v -0.5 -2.612412E-05 0.4375
v -0.4375 -2.612412E-05 0.5
v -0.5 -2.612412E-05 0.5
v -0.5 -2.612412E-05 -0.5
v -0.4375 -2.612412E-05 -0.5
v -0.4374999 0.002751654 -0.4375
v -0.4999999 0.002751654 -0.4375
v -0.375 0.004166666 -0.4999999
v -0.375 0.004166666 -0.4374999
v -0.375 0.004166666 -0.3749999
v -0.4374999 0.004166666 -0.3749999
v -0.4999999 0.002751654 -0.375
v -0.3125 0.004166666 -0.4999999
v -0.3125 0.004166666 -0.4374999
v -0.25 0.004166666 -0.4999999
v -0.25 0.004166666 -0.4374999
v -0.25 0.004166666 -0.3749999
v -0.3125 0.004166666 -0.3749999
v -0.3125 0.01388889 -0.3124999
v -0.375 0.01247388 -0.3124999
v -0.25 0.009696098 -0.3125
v -0.25 0.009696098 -0.25
v -0.3125 0.01388889 -0.2499999
v -0.375 0.01247388 -0.25
v -0.4374999 0.002751654 -0.3125
v -0.4999999 0.002751654 -0.3125
v -0.4374999 0.002751654 -0.25
v -0.5 -2.612412E-05 -0.25
v -0.1875 0.002751654 -0.5
v -0.1874999 0.004166666 -0.4374999
v -0.125 -2.612412E-05 -0.5
v -0.125 -2.612412E-05 -0.4375
v -0.125 -2.612412E-05 -0.375
v -0.1875 -2.612412E-05 -0.375
v -0.0625 -2.612412E-05 -0.5
v -0.0625 -2.612412E-05 -0.4375
v -0.0625 -2.612412E-05 -0.375
v -0.06249998 0.01388889 -0.3125
v -0.125 0.01388889 -0.3125
v -0.06249998 0.01388889 -0.25
v -0.125 0.01388889 -0.25
v -0.1875 0.01388889 -0.3125
v -0.1875 0.01388889 -0.25
v -0.1874999 0.0153039 -0.1875
v -0.25 0.01111111 -0.1875
v -0.125 0.01388889 -0.1875
v -0.125 0.01388889 -0.125
v -0.1874999 0.0153039 -0.125
v -0.25 0.02222222 -0.125
v -0.06249998 0.01388889 -0.1875
v -0.06249998 0.01388889 -0.125
v -0.06249994 0.02777778 -0.06249999
v -0.1249999 0.01944444 -0.06249999
v -0.1874999 0.01944444 -0.06249999
v -0.25 0.001388889 -0.06249999
v -0.4375 -2.612412E-05 -0.1875
v -0.5 -2.612412E-05 -0.1875
v -0.375 0.01388889 -0.1874999
v -0.375 0.01111111 -0.125
v -0.4375 -2.612412E-05 -0.125
v -0.5 -2.612412E-05 -0.125
v -0.3125 0.01388889 -0.1874999
v -0.3125 0.01111111 -0.125
v -0.3125 0.01111111 -0.06249999
v -0.375 0.01111111 -0.06249999
v -0.4374999 0.01111111 -0.06249999
v -0.5 -2.612412E-05 -0.0625

vt 0 0.5
vt 0 0.4375
vt 0.03515625 0.4101563
vt 0.03125 0.46875
vt 0 0.375
vt 0.0390625 0.3515625
vt 0.078125 0.328125
vt 0.0703125 0.3828125
vt 0.0625 0.4375
vt 0 0.3125
vt 0.04296875 0.2929688
vt 0 0.25
vt 0.046875 0.234375
vt 0.09375 0.21875
vt 0.0859375 0.2734375
vt 0.1289063 0.2539063
vt 0.1171875 0.3046875
vt 0.140625 0.203125
vt 0.1875 0.1875
vt 0.171875 0.234375
vt 0.15625 0.28125
vt 0.1054688 0.3554688
vt 0.09375 0.40625
vt 0.140625 0.328125
vt 0.125 0.375
vt 0 0.1875
vt 0.05078125 0.1757813
vt 0 0.125
vt 0.0546875 0.1171875
vt 0.109375 0.109375
vt 0.1015625 0.1640625
vt 0 0.0625
vt 0.05859375 0.05859375
vt 0 0
vt 0.0625 0
vt 0.125 0
vt 0.1171875 0.0546875
vt 0.1757813 0.05078125
vt 0.1640625 0.1015625
vt 0.1875 0
vt 0.25 0
vt 0.234375 0.046875
vt 0.21875 0.09375
vt 0.1523438 0.1523438
vt 0.203125 0.140625
vt 0.2539063 0.1289063
vt 0.234375 0.171875
vt 0.2734375 0.0859375
vt 0.328125 0.078125
vt 0.3046875 0.1171875
vt 0.28125 0.15625
vt 0.2929688 0.04296875
vt 0.3125 0
vt 0.375 0
vt 0.3515625 0.0390625
vt 0.4101563 0.03515625
vt 0.3828125 0.0703125
vt 0.4375 0
vt 0.5 0
vt 0.46875 0.03125
vt 0.4375 0.0625
vt 0.3554688 0.1054688
vt 0.328125 0.140625
vt 0.40625 0.09375
vt 0.375 0.125
vt 0.1757813 0.3007813
vt 0.15625 0.34375
vt 0.1953125 0.2578125
vt 0.234375 0.234375
vt 0.2109375 0.2734375
vt 0.1875 0.3125
vt 0.2148438 0.2148438
vt 0.2578125 0.1953125
vt 0.3007813 0.1757813
vt 0.2734375 0.2109375
vt 0.34375 0.15625
vt 0.3125 0.1875
vt 0.2460938 0.2460938
vt 0.21875 0.28125
vt 0.28125 0.21875
vt 0.25 0.25
vt 0.3164063 0.1914063
vt 0.3515625 0.1640625
vt 0.390625 0.140625
vt 0.3867188 0.1367188
vt 0.421875 0.109375
vt 0.46875 0.09375
vt 0.4296875 0.1171875
vt 0.4726563 0.09765625
vt 0.515625 0.078125
vt 0.5625 0.0625
vt 0.4570313 0.08203125
vt 0.4921875 0.0546875
vt 0.546875 0.046875
vt 0.5078125 0.0703125
vt 0.5273438 0.02734375
vt 0.5625 0
vt 0.625 0
vt 0.5859375 0.0234375
vt 0.6445313 0.01953125
vt 0.6015625 0.0390625
vt 0.6875 0
vt 0.75 0
vt 0.703125 0.015625
vt 0.65625 0.03125
vt 0.5585938 0.05859375
vt 0.609375 0.046875
vt 0.6601563 0.03515625
vt 0.7109375 0.0234375
vt 0.765625 0.015625
vt 0.7617188 0.01171875
vt 0.8125 0
vt 0.875 0
vt 0.8203125 0.0078125
vt 0.8789063 0.00390625
vt 0.9375 0
vt 1 0
vt 0 1
vt 0 0.9375
vt 0.00390625 0.8789063
vt 0 0.875
vt 0.0078125 0.8203125
vt 0.015625 0.765625
vt 0 0.8125
vt 0.01171875 0.7617188
vt 0 0.75
vt 0.015625 0.703125
vt 0.03125 0.65625
vt 0.0234375 0.7109375
vt 0.03515625 0.6601563
vt 0.046875 0.609375
vt 0.0625 0.5625
vt 0 0.6875
vt 0.01953125 0.6445313
vt 0 0.625
vt 0.0234375 0.5859375
vt 0.046875 0.546875
vt 0.0390625 0.6015625
vt 0 0.5625
vt 0.02734375 0.5273438
vt 0.0546875 0.4921875
vt 0.08203125 0.4570313
vt 0.0703125 0.5078125
vt 0.109375 0.421875
vt 0.09375 0.46875
vt 0.05859375 0.5585938
vt 0.078125 0.515625
vt 0.09765625 0.4726563
vt 0.1171875 0.4296875
vt 0.140625 0.390625
vt 0.1367188 0.3867188
vt 0.1640625 0.3515625
vt 0.1914063 0.3164063

vn -0.08895282 0.9960359 0
vn 0 1 0
vn 0 0.9960359 0.08895288
vn 0.04447642 0.9960359 0.04447644
vn 0.08895285 0.9960359 0
vn 0 0.9912279 -0.1321637
vn 0.04342152 0.9818204 -0.1743309
vn 0.08684304 0.9724129 -0.2164981
vn -0.04408928 0.9817337 -0.174484
vn -0.08817855 0.9873668 -0.1316489
vn 0 0.9761006 -0.2173191
vn -0.0334671 0.9977574 -0.03346708
vn 0 0.9977574 -0.06693417
vn -0.0669342 0.9977574 0
vn 0.03339237 0.9977649 -0.03339237
vn 0.06678473 0.9955298 -0.06678473
vn 0.1061811 0.9769183 -0.1061811
vn 0.2123623 0.9538367 -0.2123623
vn 0.2173192 0.9761006 0
vn 0.1852809 0.9810656 -0.03267071
vn 0.2168548 0.9740146 -0.06534143
vn 0.153707 0.9881165 0
vn -0.03339239 0.9977649 0.03339239
vn -0.06678478 0.9955298 0.06678478
vn 0.1853448 0.9810266 0.03307116
vn 0.1533704 0.9859527 0.06614231
vn 0.0334671 0.9977574 0.03346712
vn 0 0.9977574 0.06693424
vn 0.0669342 0.9977574 0
vn 0.1086596 0.9761006 0.1086596
vn 0 0.9761006 0.2173193
vn 0.06551217 0.9913414 -0.06551218
vn 0.1310243 0.9826827 -0.1310244
vn 0 0.9912279 0.1321637
vn 0.06608187 0.9912279 0.06608187
vn 0.1321637 0.9912279 0
vn 0 0.9938837 0.1104315
vn 0.1637457 0.981967 0.05487964
vn 0.1101722 0.9878335 0.1097593
vn 0.1108419 0.9938381 0
vn -0.01131429 0.9997439 0.01131429
vn -0.02262858 0.9994878 0.02262858
vn 0 0.9997438 0.0226344
vn -0.1208147 0.9900554 0.05522477
vn -0.153112 0.9842914 0.08790398
vn -0.0885173 0.9958194 0.02254555
vn -0.04374785 0.9910561 0.1098182
vn -0.08749571 0.984327 0.1531175
vn -0.04409738 0.9960956 0.04409738
vn -0.08819475 0.9921912 0.08819475
vn 0 0.9881165 0.153707
vn -0.02222663 0.9967865 0.04437746
vn 0.02221672 0.9997532 0
vn -0.06666998 0.9938198 0.08875492
vn -0.1321637 0.9912279 0
vn 0.02226397 0.99317 0.06601783
vn -0.04401191 0.9902675 0.1320357
vn -0.06551218 0.9913414 0.06551217
vn -0.1310244 0.9826827 0.1310243
vn -0.03267068 0.9810656 0.1852809
vn -0.06534137 0.9740146 0.2168547
vn -0.1061811 0.9769184 0.1061811
vn -0.2123623 0.9538368 0.2123622
vn -0.2165057 0.9724472 0.08643961
vn -0.2173191 0.9761006 0
vn -0.05411209 0.9821256 0.1632372
vn -0.1082242 0.9703675 0.2160428
vn -0.1108418 0.9938381 0
vn 0 0.9990138 -0.04440059
vn -0.04477312 0.9982579 -0.02219461
vn -0.02261208 0.9987583 -0.04438921
vn -0.02263442 0.9997438 0
vn -0.01131721 0.9997438 -0.0113172
vn 0 0.9997438 -0.0226344
vn -0.01121856 0.9895746 -0.1427152
vn 0 0.9881165 -0.1537069
vn -0.02243711 0.9910325 -0.1317234
vn 0.03307107 0.9910311 -0.1207485
vn 0 0.9961093 -0.08812673
vn 0.06614213 0.9859527 -0.1533703
vn -0.07683432 0.9895757 -0.05469559
vn 0 0.9912821 -0.1317566
vn -0.1536686 0.9878693 0.02236543
vn -0.1537071 0.9881165 0
vn -0.02217845 0.9990153 0.02217845
vn -0.04435689 0.9980305 0.04435689
vn 0.0113143 0.9997439 -0.01131431
vn 0.0226286 0.9994878 -0.02262862
vn 0.05565891 0.9982584 -0.01129185
vn 0.04440063 0.9990138 0
vn 0.06691718 0.9975029 -0.02258371
vn -0.0006668381 0.9839537 -0.1523927
vn 0.06534126 0.9740147 -0.2168548
vn -0.06667493 0.9938927 -0.08793063
vn -0.06691709 0.9975029 -0.02258363
vn 0.0226344 0.9997438 0
vn 0.02070429 0.9882622 -0.08700155
vn 0.1083427 0.978767 -0.1740031
vn -0.06582684 0.9817948 -0.1523498
vn 0 0.9761871 -0.2169304
vn -0.1316537 0.9874026 -0.08776905
vn 0.1059999 0.976999 -0.1059999
vn 0.2119997 0.9539981 -0.2119997
vn 0.2151161 0.9680218 -0.1290696
vn 0.151828 0.9820472 -0.06453478
vn -0.07726683 0.9533629 0.1196386
vn 0.1097833 0.9917815 -0.06570424
vn -0.264317 0.9149442 0.3049814
vn 0.01127278 0.9968161 -0.07731055
vn 0.02254555 0.9958194 -0.0885173
vn 0 0.9978127 -0.06610381
vn -0.1281626 0.9576781 -0.1484998
vn 0.02121425 0.9546419 -0.2969997
vn -0.2775395 0.9607143 0
vn -0.1853918 0.9815264 0.01048787
vn -0.1536686 0.9878693 -0.02236555
vn -0.217115 0.9751834 0.0433413
vn -0.1962736 0.9798374 0.02167076
vn -0.1754321 0.9844915 0
vn 0.04371645 0.9836212 -0.1748661
vn -0.06557477 0.9836212 -0.06557477
vn -0.174866 0.9836212 0.04371653
vn 0 0.9990138 0.04440064
vn -0.006299578 0.9617943 0.155912
vn -0.1663061 0.9354721 0.311824
vn 0.1469214 0.9444948 -0.2938429
vn -0.003392786 0.9663056 -0.1469214
vn -0.08771595 0.9844916 -0.08771609
vn 0 0.9844915 -0.1754322
vn -0.09889872 0.9861804 -0.07683427
vn -0.02236554 0.9878693 -0.1536685

usemtl LowPolyWaterMaterial
f 4/4/1 3/3/1 2/2/1 1/1/1
f 3/3/2 6/6/2 5/5/2 2/2/2
f 8/8/2 7/7/2 6/6/2 3/3/2
f 9/9/1 8/8/1 3/3/1 4/4/1
f 6/6/2 11/11/2 10/10/2 5/5/2
f 11/11/2 13/13/2 12/12/2 10/10/2
f 15/15/5 14/14/4 13/13/3 11/11/4
f 7/7/2 15/15/2 11/11/2 6/6/2
f 17/17/6 16/16/6 15/15/6 7/7/6
f 16/16/6 18/18/7 14/14/8 15/15/7
f 20/20/2 19/19/2 18/18/2 16/16/2
f 21/21/2 20/20/2 16/16/2 17/17/2
f 23/23/11 22/22/9 8/8/10 9/9/9
f 22/22/6 17/17/6 7/7/6 8/8/6
f 24/24/2 21/21/2 17/17/2 22/22/2
f 25/25/2 24/24/2 22/22/2 23/23/2
f 13/13/5 27/27/5 26/26/5 12/12/5
f 27/27/2 29/29/2 28/28/2 26/26/2
f 31/31/2 30/30/2 29/29/2 27/27/2
f 14/14/3 31/31/4 27/27/5 13/13/4
f 29/29/2 33/33/2 32/32/2 28/28/2
f 33/33/2 35/35/2 34/34/2 32/32/2
f 37/37/2 36/36/2 35/35/2 33/33/2
f 30/30/2 37/37/2 33/33/2 29/29/2
f 39/39/14 38/38/12 37/37/13 30/30/12
f 38/38/16 40/40/15 36/36/2 37/37/15
f 42/42/2 41/41/15 40/40/16 38/38/15
f 43/43/13 42/42/12 38/38/14 39/39/12
f 18/18/18 44/44/17 31/31/2 14/14/17
f 44/44/2 39/39/2 30/30/2 31/31/2
f 45/45/14 43/43/12 39/39/13 44/44/12
f 19/19/19 45/45/19 44/44/19 18/18/19
f 47/47/22 46/46/20 45/45/21 19/19/20
f 46/46/13 48/48/12 43/43/14 45/45/12
f 50/50/24 49/49/23 48/48/2 46/46/23
f 51/51/19 50/50/25 46/46/26 47/47/25
f 48/48/2 52/52/2 42/42/2 43/43/2
f 52/52/29 53/53/27 41/41/28 42/42/27
f 55/55/28 54/54/27 53/53/29 52/52/27
f 49/49/29 55/55/27 52/52/28 48/48/27
f 57/57/28 56/56/27 55/55/29 49/49/27
f 56/56/2 58/58/2 54/54/2 55/55/2
f 60/60/2 59/59/2 58/58/2 56/56/2
f 61/61/2 60/60/2 56/56/2 57/57/2
f 63/63/31 62/62/30 50/50/19 51/51/30
f 62/62/2 57/57/23 49/49/24 50/50/23
f 64/64/2 61/61/2 57/57/2 62/62/2
f 65/65/2 64/64/2 62/62/2 63/63/2
f 67/67/2 66/66/2 24/24/2 25/25/2
f 66/66/2 68/68/2 21/21/2 24/24/2
f 70/70/2 69/69/2 68/68/2 66/66/2
f 71/71/2 70/70/2 66/66/2 67/67/2
f 68/68/2 72/72/2 20/20/2 21/21/2
f 72/72/2 47/47/2 19/19/2 20/20/2
f 73/73/2 51/51/2 47/47/2 72/72/2
f 69/69/2 73/73/2 72/72/2 68/68/2
f 75/75/2 74/74/2 73/73/2 69/69/2
f 74/74/19 63/63/30 51/51/31 73/73/30
f 76/76/19 65/65/19 63/63/19 74/74/19
f 77/77/2 76/76/2 74/74/2 75/75/2
f 79/79/2 78/78/2 70/70/2 71/71/2
f 78/78/2 75/75/2 69/69/2 70/70/2
f 80/80/33 77/77/32 75/75/2 78/78/32
f 81/81/6 80/80/6 78/78/6 79/79/6
f 83/80/2 82/82/2 80/80/2 81/81/2
f 82/82/2 84/83/32 77/77/33 80/80/32
f 86/83/36 85/84/35 84/83/34 82/82/35
f 87/77/2 86/83/2 82/82/2 83/80/2
f 84/83/33 88/85/32 76/76/2 77/77/32
f 88/85/19 89/86/19 65/65/19 76/76/19
f 91/88/19 90/87/19 89/86/19 88/85/19
f 85/84/34 91/88/35 88/85/36 84/83/35
f 93/88/2 92/89/2 91/88/2 85/84/2
f 92/89/19 94/90/19 90/87/19 91/88/19
f 96/90/19 95/91/19 94/90/19 92/89/19
f 97/87/2 96/90/2 92/89/2 93/88/2
f 99/76/34 98/85/34 86/83/34 87/77/34
f 98/85/34 93/88/35 85/84/36 86/83/35
f 100/86/2 97/87/2 93/88/2 98/85/2
f 101/65/2 100/86/2 98/85/2 99/76/2
f 89/86/2 102/92/2 64/64/2 65/65/2
f 102/92/2 103/93/2 61/61/2 64/64/2
f 105/95/2 104/94/2 103/93/2 102/92/2
f 90/87/2 105/95/2 102/92/2 89/86/2
f 103/93/2 106/96/2 60/60/2 61/61/2
f 106/96/2 107/97/2 59/59/2 60/60/2
f 109/99/2 108/98/2 107/97/2 106/96/2
f 104/94/2 109/99/2 106/96/2 103/93/2
f 111/101/2 110/100/2 109/99/2 104/94/2
f 110/100/2 112/102/2 108/98/2 109/99/2
f 114/104/2 113/103/2 112/102/2 110/100/2
f 115/105/2 114/104/2 110/100/2 111/101/2
f 94/90/2 116/106/2 105/95/2 90/87/2
f 116/106/2 111/101/2 104/94/2 105/95/2
f 117/107/2 115/105/2 111/101/2 116/106/2
f 95/91/2 117/107/2 116/106/2 94/90/2
f 119/107/2 118/108/2 117/107/2 95/91/2
f 118/108/2 120/109/2 115/105/2 117/107/2
f 122/109/2 121/110/2 120/109/2 118/108/2
f 123/105/2 122/109/2 118/108/2 119/107/2
f 120/109/2 124/111/2 114/104/2 115/105/2
f 124/111/2 125/112/2 113/103/2 114/104/2
f 127/114/2 126/113/2 125/112/2 124/111/2
f 121/110/2 127/114/2 124/111/2 120/109/2
f 129/114/2 128/115/2 127/114/2 121/110/2
f 128/115/2 130/116/2 126/113/2 127/114/2
f 132/116/2 131/117/2 130/116/2 128/115/2
f 133/113/2 132/116/2 128/115/2 129/114/2
f 135/104/2 134/111/2 122/109/2 123/105/2
f 134/111/2 129/114/2 121/110/2 122/109/2
f 136/112/2 133/113/2 129/114/2 134/111/2
f 137/103/2 136/112/2 134/111/2 135/104/2
f 139/64/2 138/92/2 100/86/2 101/65/2
f 138/92/2 140/95/2 97/87/2 100/86/2
f 142/93/37 141/94/37 140/95/37 138/92/37
f 143/61/37 142/93/37 138/92/37 139/64/37
f 140/95/19 144/106/30 96/90/31 97/87/30
f 144/106/31 119/107/30 95/91/19 96/90/30
f 145/101/2 123/105/2 119/107/2 144/106/2
f 141/94/39 145/101/38 144/106/19 140/95/38
f 147/99/40 146/100/40 145/101/40 141/94/40
f 146/100/2 135/104/2 123/105/2 145/101/2
f 148/102/2 137/103/2 135/104/2 146/100/2
f 149/98/40 148/102/40 146/100/40 147/99/40
f 151/60/2 150/96/2 142/93/2 143/61/2
f 150/96/2 147/99/2 141/94/2 142/93/2
f 152/97/2 149/98/2 147/99/2 150/96/2
f 153/59/2 152/97/2 150/96/2 151/60/2
f 157/2/2 156/3/41 155/4/42 154/1/41
f 156/3/43 159/8/43 158/9/43 155/4/43
f 161/6/2 160/7/2 159/8/2 156/3/2
f 162/5/2 161/6/2 156/3/2 157/2/2
f 159/8/43 164/22/43 163/23/43 158/9/43
f 164/22/46 166/24/44 165/25/45 163/23/44
f 168/17/1 167/21/1 166/24/1 164/22/1
f 160/7/2 168/17/2 164/22/2 159/8/2
f 170/15/48 169/16/47 168/17/28 160/7/47
f 169/16/28 171/20/47 167/21/48 168/17/47
f 173/18/3 172/19/3 171/20/3 169/16/3
f 174/14/2 173/18/49 169/16/50 170/15/49
f 176/10/51 175/11/51 161/6/51 162/5/51
f 175/11/51 170/15/51 160/7/51 161/6/51
f 177/13/2 174/14/2 170/15/2 175/11/2
f 178/12/2 177/13/2 175/11/2 176/10/2
f 166/24/54 180/66/52 179/67/53 165/25/52
f 180/66/2 182/70/2 181/71/2 179/67/2
f 184/68/2 183/69/2 182/70/2 180/66/2
f 167/21/14 184/68/14 180/66/14 166/24/14
f 182/70/55 186/78/55 185/79/55 181/71/55
f 186/78/5 83/80/5 81/81/5 185/79/5
f 187/75/57 87/77/56 83/80/5 186/78/56
f 183/69/2 187/75/58 186/78/59 182/70/58
f 189/73/2 188/74/2 187/75/2 183/69/2
f 188/74/5 99/76/56 87/77/57 187/75/56
f 190/63/3 101/65/4 99/76/5 188/74/4
f 191/51/3 190/63/3 188/74/3 189/73/3
f 171/20/51 192/72/60 184/68/61 167/21/60
f 192/72/63 189/73/62 183/69/2 184/68/62
f 193/47/64 191/51/64 189/73/64 192/72/64
f 172/19/3 193/47/3 192/72/3 171/20/3
f 195/45/2 194/46/2 193/47/2 172/19/2
f 194/46/65 196/50/65 191/51/65 193/47/65
f 198/48/2 197/49/62 196/50/63 194/46/62
f 199/43/2 198/48/2 194/46/2 195/45/2
f 196/50/2 200/62/2 190/63/2 191/51/2
f 200/62/2 139/64/2 101/65/2 190/63/2
f 201/57/67 143/61/66 139/64/37 200/62/66
f 197/49/31 201/57/31 200/62/31 196/50/31
f 203/55/2 202/56/2 201/57/2 197/49/2
f 202/56/68 151/60/68 143/61/68 201/57/68
f 204/58/68 153/59/68 151/60/68 202/56/68
f 205/54/2 204/58/2 202/56/2 203/55/2
f 207/42/2 206/52/2 198/48/2 199/43/2
f 206/52/2 203/55/2 197/49/2 198/48/2
f 208/53/2 205/54/2 203/55/2 206/52/2
f 209/41/2 208/53/2 206/52/2 207/42/2
f 211/26/2 210/27/2 177/13/2 178/12/2
f 210/27/2 212/31/2 174/14/2 177/13/2
f 214/29/2 213/30/2 212/31/2 210/27/2
f 215/28/2 214/29/2 210/27/2 211/26/2
f 212/31/2 216/44/2 173/18/2 174/14/2
f 216/44/2 195/45/2 172/19/2 173/18/2
f 217/39/2 199/43/2 195/45/2 216/44/2
f 213/30/2 217/39/2 216/44/2 212/31/2
f 219/37/2 218/38/2 217/39/2 213/30/2
f 218/38/2 207/42/2 199/43/2 217/39/2
f 220/40/2 209/41/2 207/42/2 218/38/2
f 221/36/2 220/40/2 218/38/2 219/37/2
f 223/32/2 222/33/2 214/29/2 215/28/2
f 222/33/2 219/37/2 213/30/2 214/29/2
f 224/35/2 221/36/2 219/37/2 222/33/2
f 225/34/2 224/35/2 222/33/2 223/32/2
f 229/119/69 228/120/69 227/119/69 226/118/69
f 228/120/71 231/122/70 230/121/14 227/119/70
f 233/122/74 232/123/73 231/122/72 228/120/73
f 234/121/72 233/122/73 228/120/74 229/119/73
f 231/122/2 236/125/2 235/124/2 230/121/2
f 236/125/2 238/127/2 237/126/2 235/124/2
f 240/129/2 239/128/2 238/127/2 236/125/2
f 232/123/2 240/129/2 236/125/2 231/122/2
f 242/129/77 241/130/75 240/129/76 232/123/75
f 241/130/80 243/131/78 239/128/79 240/129/78
f 245/131/29 244/132/29 243/131/29 241/130/29
f 246/128/72 245/131/72 241/130/72 242/129/72
f 248/124/2 247/125/41 233/122/42 234/121/41
f 247/125/83 242/129/81 232/123/82 233/122/81
f 249/127/84 246/128/84 242/129/84 247/125/84
f 250/126/86 249/127/85 247/125/2 248/124/85
f 238/127/2 252/134/87 251/133/88 237/126/87
f 252/134/91 254/136/89 253/135/90 251/133/89
f 256/138/28 255/137/27 254/136/29 252/134/27
f 239/128/29 256/138/27 252/134/28 238/127/27
f 254/136/2 258/140/2 257/139/2 253/135/2
f 258/140/2 4/4/2 1/1/2 257/139/2
f 259/141/2 9/9/2 4/4/2 258/140/2
f 255/137/2 259/141/2 258/140/2 254/136/2
f 261/143/11 260/142/11 259/141/11 255/137/11
f 260/142/11 23/23/11 9/9/11 259/141/11
f 262/144/2 25/25/2 23/23/2 260/142/2
f 263/145/2 262/144/2 260/142/2 261/143/2
f 243/131/94 264/146/92 256/138/93 239/128/92
f 264/146/11 261/143/11 255/137/11 256/138/11
f 265/147/2 263/145/2 261/143/2 264/146/2
f 244/132/14 265/147/14 264/146/14 243/131/14
f 267/147/95 266/148/95 265/147/95 244/132/95
f 266/148/88 268/149/87 263/145/2 265/147/87
f 270/149/96 269/150/96 268/149/96 266/148/96
f 271/145/98 270/149/97 266/148/14 267/147/97
f 268/149/2 272/151/2 262/144/2 263/145/2
f 272/151/2 67/67/2 25/25/2 262/144/2
f 273/152/2 71/71/2 67/67/2 272/151/2
f 269/150/2 273/152/2 272/151/2 268/149/2
f 275/152/101 274/153/99 273/152/100 269/150/99
f 274/153/103 79/79/102 71/71/2 273/152/102
f 185/79/5 81/81/105 79/79/104 274/153/105
f 181/71/55 185/79/55 274/153/55 275/152/55
f 277/144/108 276/151/106 270/149/107 271/145/106
f 276/151/111 275/152/109 269/150/110 270/149/109
f 179/67/2 181/71/2 275/152/2 276/151/2
f 165/25/113 179/67/112 276/151/114 277/144/112
f 279/133/2 278/134/85 249/127/86 250/126/85
f 278/134/117 280/138/115 246/128/116 249/127/115
f 282/136/119 281/137/118 280/138/117 278/134/118
f 283/135/2 282/136/2 278/134/2 279/133/2
f 280/138/74 284/146/73 245/131/72 246/128/73
f 284/146/90 267/147/89 244/132/91 245/131/89
f 285/143/122 271/145/121 267/147/120 284/146/121
f 281/137/123 285/143/123 284/146/123 280/138/123
f 287/141/2 286/142/2 285/143/2 281/137/2
f 286/142/22 277/144/124 271/145/125 285/143/124
f 163/23/84 165/25/127 277/144/126 286/142/127
f 158/9/2 163/23/2 286/142/2 287/141/2
f 289/139/119 288/140/128 282/136/129 283/135/128
f 288/140/129 287/141/128 281/137/119 282/136/128
f 155/4/2 158/9/2 287/141/2 288/140/2
f 154/1/131 155/4/130 288/140/119 289/139/130

